<?xml version="1.0" encoding="UTF-8"?>
<svg xmlns="http://www.w3.org/2000/svg" xmlns:xlink="http://www.w3.org/1999/xlink" width="15px" height="17px" viewBox="0 0 15 17" version="1.1">
<g id="surface1">
<path style=" stroke:none;fill-rule:nonzero;fill:rgb(0%,0%,0%);fill-opacity:1;" d="M 0 7.171875 C 0 4.96875 1.796875 3.1875 4.019531 3.1875 L 4.285156 3.1875 C 4.878906 3.1875 5.355469 3.664062 5.355469 4.25 C 5.355469 4.835938 4.878906 5.3125 4.285156 5.3125 L 4.019531 5.3125 C 2.984375 5.3125 2.144531 6.144531 2.144531 7.171875 L 2.144531 7.4375 L 4.285156 7.4375 C 5.46875 7.4375 6.429688 8.390625 6.429688 9.5625 L 6.429688 11.6875 C 6.429688 12.859375 5.46875 13.8125 4.285156 13.8125 L 2.144531 13.8125 C 0.960938 13.8125 0 12.859375 0 11.6875 Z M 8.570312 7.171875 C 8.570312 4.96875 10.371094 3.1875 12.589844 3.1875 L 12.855469 3.1875 C 13.449219 3.1875 13.929688 3.664062 13.929688 4.25 C 13.929688 4.835938 13.449219 5.3125 12.855469 5.3125 L 12.589844 5.3125 C 11.554688 5.3125 10.714844 6.144531 10.714844 7.171875 L 10.714844 7.4375 L 12.855469 7.4375 C 14.039062 7.4375 15 8.390625 15 9.5625 L 15 11.6875 C 15 12.859375 14.039062 13.8125 12.855469 13.8125 L 10.714844 13.8125 C 9.53125 13.8125 8.570312 12.859375 8.570312 11.6875 Z M 8.570312 7.171875 "/>
</g>
</svg>
